STARTFONT 2.1
FONT -Adobe-ITC Avant Garde Gothic-Demi-R-Normal--33-240-100-100-P-182-ISO8859-1
SIZE 24 100 100
FONTBOUNDINGBOX 44 34 -4 -7

STARTPROPERTIES 26
_DEC_DEVICE_FONTNAMES "PS=AvantGarde-Demi"
FONTNAME_REGISTRY ""
FAMILY_NAME "ITC Avant Garde Gothic"
FOUNDRY "Adobe"
WEIGHT_NAME "Demi"
SLANT "R"
SETWIDTH_NAME "Normal"
ADD_STYLE_NAME ""
PIXEL_SIZE 33
POINT_SIZE 240
RESOLUTION_X 100
RESOLUTION_Y 100
SPACING "P"
AVERAGE_WIDTH 182
CHARSET_REGISTRY "ISO8859"
CHARSET_ENCODING "1"
CHARSET_COLLECTIONS "ASCII ISO8859-1 ADOBE-STANDARD"
FULL_NAME "ITC Avant Garde Gothic Demi"
COPYRIGHT "Copyright (c) 1991 Adobe Systems, Inc."
CAP_HEIGHT 25
X_HEIGHT 19
WEIGHT 10
QUAD_WIDTH 21
DEFAULT_CHAR 0
FONT_DESCENT 7
FONT_ASCENT 27
ENDPROPERTIES

CHARS 190

STARTCHAR space
ENCODING 32
SWIDTH 280 0
DWIDTH 9 0
BBX 1 1 0 0
BITMAP
00
ENDCHAR

STARTCHAR exclam
ENCODING 33
SWIDTH 280 0
DWIDTH 9 0
BBX 4 25 2 0
BITMAP
F0
F0
F0
F0
F0
F0
F0
F0
F0
F0
F0
F0
F0
F0
F0
F0
F0
F0
F0
00
00
F0
F0
F0
F0
ENDCHAR

STARTCHAR quotedbl
ENCODING 34
SWIDTH 360 0
DWIDTH 12 0
BBX 6 8 3 17
BITMAP
CC
CC
CC
CC
CC
CC
CC
CC
ENDCHAR

STARTCHAR numbersign
ENCODING 35
SWIDTH 560 0
DWIDTH 19 0
BBX 16 24 1 0
BITMAP
071C
071C
071C
0738
0738
0738
0738
7FFF
7FFF
7FFF
0E38
0E70
0E70
FFFE
FFFE
FFFE
1C70
1C70
1C70
1CE0
1CE0
1CE0
38E0
38E0
ENDCHAR

STARTCHAR dollar
ENCODING 36
SWIDTH 560 0
DWIDTH 18 0
BBX 14 29 2 -2
BITMAP
0780
0780
0780
0FC0
1FE0
3FF0
7FF0
78F8
7878
7800
7C00
7F00
3FC0
3FF0
0FF8
03F8
0078
007C
F07C
F07C
F8F8
7FF8
7FF0
3FF0
0FC0
0780
0780
0780
0780
ENDCHAR

STARTCHAR percent
ENCODING 37
SWIDTH 860 0
DWIDTH 28 0
BBX 27 25 0 0
BITMAP
0F000000
3FC0F000
7FE0F000
7FE0E000
F1F1E000
F0F1C000
F0F3C000
F9F38000
7FE78000
7FE70000
3FC70000
070F0000
000E0000
001E0C00
001C7F80
003CFFC0
0038FFC0
0039E1E0
0079E1E0
0071E1E0
00F1F3E0
00E0FFC0
01E0FFC0
01C07F80
00001E00
ENDCHAR

STARTCHAR ampersand
ENCODING 38
SWIDTH 680 0
DWIDTH 22 0
BBX 20 25 1 0
BITMAP
03F000
0FF800
1FFC00
1FFE00
1F3E00
3E1E00
3E1E00
1E3E00
1F7E00
0FFC00
0FF8F0
1FF1F0
3FF3E0
7FFBE0
FEFFC0
F87FC0
F87F80
F03F80
F01F80
F83FC0
FC7FE0
7FFFF0
3FFDF0
1FF8E0
07E040
ENDCHAR

STARTCHAR quoteright
ENCODING 39
SWIDTH 280 0
DWIDTH 9 0
BBX 4 9 2 16
BITMAP
F0
F0
F0
F0
30
70
F0
E0
C0
ENDCHAR

STARTCHAR parenleft
ENCODING 40
SWIDTH 380 0
DWIDTH 13 0
BBX 9 29 3 -4
BITMAP
0180
0780
0F80
1F80
1F80
3F00
3E00
7C00
7C00
F800
F800
F800
F000
F000
F000
F000
F000
F800
F800
F800
7C00
7C00
3E00
3F00
1F80
0F80
0F80
0780
0180
ENDCHAR

STARTCHAR parenright
ENCODING 41
SWIDTH 380 0
DWIDTH 12 0
BBX 9 29 1 -4
BITMAP
C000
F000
F800
FC00
FC00
7E00
3E00
1F00
1F00
0F80
0F80
0F80
0780
0780
0780
0780
0780
0F80
0F80
0F80
1F00
1F00
3E00
7E00
FC00
FC00
F800
F000
C000
ENDCHAR

STARTCHAR asterisk
ENCODING 42
SWIDTH 440 0
DWIDTH 14 0
BBX 10 10 2 15
BITMAP
3300
3300
3F00
1E00
FFC0
FFC0
1E00
3F00
3300
3300
ENDCHAR

STARTCHAR plus
ENCODING 43
SWIDTH 600 0
DWIDTH 19 0
BBX 16 17 2 2
BITMAP
03C0
03C0
03C0
03C0
03C0
03C0
FFFF
FFFF
FFFF
FFFF
03C0
03C0
03C0
03C0
03C0
03C0
03C0
ENDCHAR

STARTCHAR comma
ENCODING 44
SWIDTH 280 0
DWIDTH 9 0
BBX 4 9 2 -5
BITMAP
F0
F0
F0
F0
30
70
F0
E0
C0
ENDCHAR

STARTCHAR minus
ENCODING 45
SWIDTH 600 0
DWIDTH 19 0
BBX 16 4 2 9
BITMAP
FFFF
FFFF
FFFF
FFFF
ENDCHAR

STARTCHAR period
ENCODING 46
SWIDTH 280 0
DWIDTH 9 0
BBX 4 4 2 0
BITMAP
F0
F0
F0
F0
ENDCHAR

STARTCHAR slash
ENCODING 47
SWIDTH 460 0
DWIDTH 15 0
BBX 13 29 1 -4
BITMAP
0038
0078
0070
0070
00E0
00E0
00E0
01C0
01C0
01C0
0380
0380
0380
0700
0700
0700
0E00
0E00
0E00
1C00
1C00
1C00
3800
3800
3800
7000
7000
F000
E000
ENDCHAR

STARTCHAR zero
ENCODING 48
SWIDTH 560 0
DWIDTH 18 0
BBX 16 25 1 0
BITMAP
07E0
1FF8
3FFC
7FFE
7E7E
F81F
F81F
F00F
F00F
F00F
F00F
F00F
F00F
F00F
F00F
F00F
F00F
F00F
F81F
F81F
7E7E
7FFE
3FFC
1FF8
03E0
ENDCHAR

STARTCHAR one
ENCODING 49
SWIDTH 560 0
DWIDTH 18 0
BBX 7 25 5 0
BITMAP
FE
FE
FE
FE
1E
1E
1E
1E
1E
1E
1E
1E
1E
1E
1E
1E
1E
1E
1E
1E
1E
1E
1E
1E
1E
ENDCHAR

STARTCHAR two
ENCODING 50
SWIDTH 560 0
DWIDTH 18 0
BBX 15 25 1 0
BITMAP
0FE0
1FF0
3FF8
7FFC
7E7C
F83E
F81E
F01E
F01E
001E
003E
007C
00FC
01F8
03F0
07F0
0FE0
1FC0
3F80
7F00
FE00
FFFE
FFFE
FFFE
FFFE
ENDCHAR

STARTCHAR three
ENCODING 51
SWIDTH 560 0
DWIDTH 18 0
BBX 16 25 0 0
BITMAP
07E0
0FF0
1FF8
3FFC
3E7C
3C3C
003C
003C
00FC
01FC
01F8
01FC
01FE
007E
001F
001F
000F
F80F
F80F
781F
7E3E
7FFE
3FFC
1FF8
07E0
ENDCHAR

STARTCHAR four
ENCODING 52
SWIDTH 560 0
DWIDTH 18 0
BBX 17 25 0 0
BITMAP
003C00
007C00
007C00
00FC00
00FC00
01FC00
03FC00
03FC00
07BC00
0FBC00
0F3C00
1F3C00
1E3C00
3C3C00
7C3C00
783C00
F83C00
FFFF80
FFFF80
FFFF80
FFFF80
003C00
003C00
003C00
003C00
ENDCHAR

STARTCHAR five
ENCODING 53
SWIDTH 560 0
DWIDTH 18 0
BBX 16 25 0 0
BITMAP
1FFC
1FFC
1FFC
1FFC
3C00
3C00
3C00
3C00
3C00
3FF0
7FF8
7FFC
7FFE
7C7E
001F
001F
000F
000F
F81F
F81F
7C3E
7FFE
3FFC
1FF8
07E0
ENDCHAR

STARTCHAR six
ENCODING 54
SWIDTH 560 0
DWIDTH 18 0
BBX 16 25 1 0
BITMAP
00F8
01F0
01F0
03E0
07E0
07C0
0FC0
0F80
1F00
1FF0
3FF8
7FFC
7FFE
FC3F
F81F
F01F
F00F
F00F
F80F
F81F
7C3E
7FFE
3FFC
1FF8
07E0
ENDCHAR

STARTCHAR seven
ENCODING 55
SWIDTH 560 0
DWIDTH 18 0
BBX 14 25 2 0
BITMAP
FFFC
FFFC
FFFC
FFFC
007C
0078
00F8
00F8
00F0
01F0
01E0
03E0
03E0
07C0
07C0
0780
0F80
0F80
1F00
1F00
1E00
3E00
3E00
7C00
7C00
ENDCHAR

STARTCHAR eight
ENCODING 56
SWIDTH 560 0
DWIDTH 18 0
BBX 16 25 1 0
BITMAP
03C0
0FF0
1FF8
3FFC
3E7C
7C3E
7C3E
7C3E
7C3E
3E7C
3FFC
1FF8
3FFC
7FFE
7C3E
F81F
F81F
F00F
F81F
F81F
7C3E
7FFE
3FFC
1FF8
07E0
ENDCHAR

STARTCHAR nine
ENCODING 57
SWIDTH 560 0
DWIDTH 18 0
BBX 16 25 1 0
BITMAP
07E0
1FF8
3FFC
7FFE
7E7E
F81F
F81F
F00F
F00F
F00F
F81F
F81F
7C7F
7FFE
3FFE
1FFC
0FF8
01F8
01F0
03E0
03E0
07C0
0FC0
0F80
1F00
ENDCHAR

STARTCHAR colon
ENCODING 58
SWIDTH 280 0
DWIDTH 9 0
BBX 4 17 2 0
BITMAP
F0
F0
F0
F0
00
00
00
00
00
00
00
00
00
F0
F0
F0
F0
ENDCHAR

STARTCHAR semicolon
ENCODING 59
SWIDTH 280 0
DWIDTH 9 0
BBX 4 22 2 -5
BITMAP
F0
F0
F0
F0
00
00
00
00
00
00
00
00
00
F0
F0
F0
F0
30
70
F0
E0
C0
ENDCHAR

STARTCHAR less
ENCODING 60
SWIDTH 600 0
DWIDTH 19 0
BBX 17 19 1 1
BITMAP
000080
000380
000F80
007F80
01FF00
07FC00
1FF000
7FC000
FE0000
F80000
FE0000
7F8000
1FF000
07FC00
01FF00
007F80
000F80
000380
000080
ENDCHAR

STARTCHAR equal
ENCODING 61
SWIDTH 600 0
DWIDTH 19 0
BBX 16 11 2 5
BITMAP
FFFF
FFFF
FFFF
FFFF
0000
0000
0000
FFFF
FFFF
FFFF
FFFF
ENDCHAR

STARTCHAR greater
ENCODING 62
SWIDTH 600 0
DWIDTH 19 0
BBX 16 17 2 2
BITMAP
E000
F800
FE00
7F80
1FE0
07F8
01FE
007F
001F
007F
01FE
07F8
1FE0
7F80
FE00
F800
E000
ENDCHAR

STARTCHAR question
ENCODING 63
SWIDTH 560 0
DWIDTH 18 0
BBX 14 25 1 0
BITMAP
0FC0
3FF0
3FF8
7FF8
FCFC
F87C
F03C
F03C
003C
007C
00FC
01F8
01F0
03F0
07E0
07C0
0780
0780
0780
0000
0000
0780
0780
0780
0780
ENDCHAR

STARTCHAR at
ENCODING 64
SWIDTH 740 0
DWIDTH 24 0
BBX 24 25 0 0
BITMAP
00FF80
03FFE0
0FE7F0
1F0078
1C001C
38000E
703CEE
70FEE7
E1FFE7
E3FFE3
E3C3E3
C7C3C3
C781C3
C783C7
E783C6
E7C7CE
E7FF8C
73FFF8
71FBF0
3873C0
3C003C
1F0078
0FF1F0
03FFE0
00FF80
ENDCHAR

STARTCHAR A
ENCODING 65
SWIDTH 740 0
DWIDTH 24 0
BBX 23 25 0 0
BITMAP
007C00
007C00
007C00
00FE00
00FE00
00FE00
01FF00
01EF00
03EF80
03EF80
03C780
07C7C0
07C7C0
0F83E0
0FFFE0
0FFFE0
1FFFF0
1FFFF0
1F00F0
3E00F8
3E00F8
7C007C
7C007C
7C007C
F8003E
ENDCHAR

STARTCHAR B
ENCODING 66
SWIDTH 580 0
DWIDTH 19 0
BBX 15 25 2 0
BITMAP
FFC0
FFF0
FFF0
FFF8
F07C
F03C
F03C
F03C
F078
F1F8
FFF0
FFE0
FFF8
FFFC
F0FE
F03E
F01E
F01E
F01E
F03E
F0FE
FFFC
FFFC
FFF8
FFE0
ENDCHAR

STARTCHAR C
ENCODING 67
SWIDTH 780 0
DWIDTH 25 0
BBX 23 25 1 0
BITMAP
00FF00
03FFC0
0FFFF0
1FFFF8
3FE3FC
3F00FC
7E007E
7C0000
F80000
F80000
F80000
F00000
F00000
F00000
F80000
F80000
F80000
7C0000
7E007C
3F00FC
1FE3FC
1FFFF8
0FFFF0
03FFC0
00FF00
ENDCHAR

STARTCHAR D
ENCODING 68
SWIDTH 700 0
DWIDTH 23 0
BBX 19 25 2 0
BITMAP
FFE000
FFF800
FFFE00
FFFF00
F07F80
F01F80
F00FC0
F007C0
F003E0
F003E0
F001E0
F001E0
F001E0
F001E0
F001E0
F003E0
F003E0
F007C0
F00FC0
F01F80
F07F80
FFFF00
FFFE00
FFFC00
FFE000
ENDCHAR

STARTCHAR E
ENCODING 69
SWIDTH 520 0
DWIDTH 17 0
BBX 13 25 2 0
BITMAP
FFF8
FFF8
FFF8
FFF8
F000
F000
F000
F000
F000
F000
F000
FFF0
FFF0
FFF0
FFF0
F000
F000
F000
F000
F000
F000
FFF8
FFF8
FFF8
FFF8
ENDCHAR

STARTCHAR F
ENCODING 70
SWIDTH 480 0
DWIDTH 16 0
BBX 12 25 2 0
BITMAP
FFF0
FFF0
FFF0
FFF0
F000
F000
F000
F000
F000
F000
F000
FFE0
FFE0
FFE0
FFE0
F000
F000
F000
F000
F000
F000
F000
F000
F000
F000
ENDCHAR

STARTCHAR G
ENCODING 71
SWIDTH 840 0
DWIDTH 27 0
BBX 25 25 1 0
BITMAP
00FF8000
03FFE000
07FFF000
0FFFF800
1FF7FC00
3F80FE00
7E003E00
7C003F00
7C000000
F8000000
F8000000
F8000000
F0000000
F03FFF80
F83FFF80
F83FFF80
F83FFF80
7C001F00
7E003F00
3F007E00
3FE1FE00
1FFFFC00
0FFFF800
03FFE000
00FF8000
ENDCHAR

STARTCHAR H
ENCODING 72
SWIDTH 680 0
DWIDTH 22 0
BBX 17 25 2 0
BITMAP
F00780
F00780
F00780
F00780
F00780
F00780
F00780
F00780
F00780
F00780
FFFF80
FFFF80
FFFF80
FFFF80
F00780
F00780
F00780
F00780
F00780
F00780
F00780
F00780
F00780
F00780
F00780
ENDCHAR

STARTCHAR I
ENCODING 73
SWIDTH 280 0
DWIDTH 9 0
BBX 4 25 2 0
BITMAP
F0
F0
F0
F0
F0
F0
F0
F0
F0
F0
F0
F0
F0
F0
F0
F0
F0
F0
F0
F0
F0
F0
F0
F0
F0
ENDCHAR

STARTCHAR J
ENCODING 74
SWIDTH 480 0
DWIDTH 16 0
BBX 13 25 0 0
BITMAP
0078
0078
0078
0078
0078
0078
0078
0078
0078
0078
0078
0078
0078
0078
0078
0078
0078
0078
0078
F8F8
7FF8
7FF0
3FF0
1FE0
0780
ENDCHAR

STARTCHAR K
ENCODING 75
SWIDTH 620 0
DWIDTH 20 0
BBX 16 25 2 0
BITMAP
F01F
F03F
F03E
F07C
F0FC
F0F8
F1F0
F3E0
F3E0
F7C0
FF80
FF80
FF00
FF80
FF80
F7C0
F3E0
F3F0
F1F0
F0F8
F0FC
F07C
F03E
F03F
F01F
ENDCHAR

STARTCHAR L
ENCODING 76
SWIDTH 440 0
DWIDTH 14 0
BBX 11 25 2 0
BITMAP
F000
F000
F000
F000
F000
F000
F000
F000
F000
F000
F000
F000
F000
F000
F000
F000
F000
F000
F000
F000
F000
FFE0
FFE0
FFE0
FFE0
ENDCHAR

STARTCHAR M
ENCODING 77
SWIDTH 900 0
DWIDTH 29 0
BBX 25 25 2 0
BITMAP
FC001F80
FC003F80
FE003F80
FE003F80
FE007F80
FF007F80
FF00FF80
FF00F780
F780F780
F781F780
F781E780
F3C1E780
F3C3E780
F3C3C780
F1E3C780
F1E78780
F1E78780
F0FF8780
F0FF0780
F0FF0780
F07F0780
F07E0780
F07E0780
F03E0780
F03C0780
ENDCHAR

STARTCHAR N
ENCODING 78
SWIDTH 740 0
DWIDTH 24 0
BBX 19 25 2 0
BITMAP
F801E0
FC01E0
FC01E0
FE01E0
FE01E0
FF01E0
FF01E0
F781E0
F7C1E0
F3C1E0
F3E1E0
F1E1E0
F1F1E0
F0F1E0
F0F9E0
F079E0
F07DE0
F03DE0
F01FE0
F01FE0
F00FE0
F00FE0
F007E0
F007E0
F003E0
ENDCHAR

STARTCHAR O
ENCODING 79
SWIDTH 840 0
DWIDTH 27 0
BBX 24 25 1 0
BITMAP
00FF00
03FFC0
0FFFF0
1FFFF8
3FE7FC
3F00FC
7E007E
7C003E
F8001F
F8001F
F8001F
F0000F
F0000F
F0000F
F8001F
F8001F
F8001F
7C003E
7E007E
3F00FC
3FE7FC
1FFFF8
0FFFF0
03FFC0
00FF00
ENDCHAR

STARTCHAR P
ENCODING 80
SWIDTH 560 0
DWIDTH 18 0
BBX 15 25 2 0
BITMAP
FFE0
FFF8
FFFC
FFFC
F0FE
F03E
F01E
F01E
F03E
F03E
F0FE
FFFC
FFFC
FFF8
FFE0
F000
F000
F000
F000
F000
F000
F000
F000
F000
F000
ENDCHAR

STARTCHAR Q
ENCODING 81
SWIDTH 840 0
DWIDTH 27 0
BBX 26 25 1 0
BITMAP
00FF8000
03FFE000
0FFFF000
1FFFFC00
3FE3FC00
3F00FE00
7E003F00
7C001F00
FC001F80
F8000F80
F8000F80
F0000F80
F0000780
F7E00780
FFFC0F80
FFFF0F80
FFFF8F80
7C1FFF00
7E07FF00
3F01FE00
1FE3FE00
1FFFFFC0
07FFFFC0
03FFFFC0
00FF87C0
ENDCHAR

STARTCHAR R
ENCODING 82
SWIDTH 580 0
DWIDTH 19 0
BBX 16 25 2 0
BITMAP
FFF0
FFFC
FFFC
FFFE
F07F
F03F
F01F
F01F
F00F
F01F
F01F
F07E
FFFE
FFFC
FFF8
FFE0
F7C0
F3E0
F3F0
F1F8
F0F8
F0FC
F07E
F03E
F03F
ENDCHAR

STARTCHAR S
ENCODING 83
SWIDTH 520 0
DWIDTH 17 0
BBX 16 25 0 0
BITMAP
07E0
1FF8
3FFC
3FFC
7E3E
7C1E
7C1E
7C00
7C00
7F00
3FE0
1FF8
0FFC
03FE
007F
001F
001F
000F
F80F
F81F
FC3E
7FFE
3FFC
1FF8
07E0
ENDCHAR

STARTCHAR T
ENCODING 84
SWIDTH 420 0
DWIDTH 14 0
BBX 14 25 0 0
BITMAP
FFFC
FFFC
FFFC
FFFC
0780
0780
0780
0780
0780
0780
0780
0780
0780
0780
0780
0780
0780
0780
0780
0780
0780
0780
0780
0780
0780
ENDCHAR

STARTCHAR U
ENCODING 85
SWIDTH 640 0
DWIDTH 21 0
BBX 16 25 2 0
BITMAP
F00F
F00F
F00F
F00F
F00F
F00F
F00F
F00F
F00F
F00F
F00F
F00F
F00F
F00F
F00F
F00F
F00F
F81F
F81F
FC3F
7E7E
7FFE
3FFC
1FF8
07E0
ENDCHAR

STARTCHAR V
ENCODING 86
SWIDTH 700 0
DWIDTH 23 0
BBX 22 25 0 0
BITMAP
F8007C
780078
7C00F8
7C00F8
3C00F0
3E01F0
3E01F0
1E01E0
1F03E0
0F03C0
0F03C0
0F87C0
078780
078780
07CF80
03CF00
03CF00
03FF00
01FE00
01FE00
01FE00
00FC00
00FC00
007800
007800
ENDCHAR

STARTCHAR W
ENCODING 87
SWIDTH 900 0
DWIDTH 29 0
BBX 28 25 0 0
BITMAP
F80700F0
F80F80F0
F80F81F0
780F81E0
780F81E0
7C1FC1E0
3C1FC1E0
3C1FC3C0
3C1FC3C0
3E3DE3C0
1E3DE3C0
1E3DE380
1E3DE780
1F78F780
0F78F780
0F78F700
0F78F700
07F07F00
07F07F00
07F07E00
07F07E00
03E03E00
03E03E00
03E03C00
03E03C00
ENDCHAR

STARTCHAR X
ENCODING 88
SWIDTH 680 0
DWIDTH 22 0
BBX 21 25 0 0
BITMAP
FC01F8
7C01F0
3E03E0
3E03E0
1F07C0
1F8FC0
0F8F80
07DF00
07FF00
03FE00
01FC00
01FC00
00F800
01FC00
01FC00
03FE00
07FF00
07DF00
0F8F80
1F8FC0
1F07C0
3E03E0
3E03E0
7C01F0
FC01F8
ENDCHAR

STARTCHAR Y
ENCODING 89
SWIDTH 620 0
DWIDTH 20 0
BBX 20 25 0 0
BITMAP
F801F0
7C03E0
7C03E0
3E07C0
3E07C0
1E0780
1F0F80
0F0F00
0F9F00
079E00
07FE00
03FC00
03FC00
01F800
01F800
00F000
00F000
00F000
00F000
00F000
00F000
00F000
00F000
00F000
00F000
ENDCHAR

STARTCHAR Z
ENCODING 90
SWIDTH 500 0
DWIDTH 16 0
BBX 14 25 1 0
BITMAP
FFFC
FFFC
FFFC
FFFC
00FC
00F8
01F8
01F0
03F0
03E0
07C0
07C0
0F80
0F80
1F00
1F00
3E00
3E00
7C00
7C00
F800
FFFC
FFFC
FFFC
FFFC
ENDCHAR

STARTCHAR bracketleft
ENCODING 91
SWIDTH 320 0
DWIDTH 10 0
BBX 7 29 2 -4
BITMAP
06
1E
3E
7E
7E
FC
F8
F8
F0
F0
F0
F0
F0
F0
F0
F0
F0
F0
F0
F0
F0
F8
F8
FC
7E
7E
3E
1E
0E
ENDCHAR

STARTCHAR backslash
ENCODING 92
SWIDTH 640 0
DWIDTH 21 0
BBX 13 25 3 0
BITMAP
F000
F000
7000
7800
3800
3800
3C00
1C00
1E00
0E00
0E00
0F00
0700
0780
0380
0380
03C0
01C0
01E0
00E0
00E0
00F0
0070
0078
0078
ENDCHAR

STARTCHAR bracketright
ENCODING 93
SWIDTH 320 0
DWIDTH 10 0
BBX 7 29 1 -4
BITMAP
C0
F0
F8
FC
FC
7E
3E
3E
1E
1E
1E
1E
1E
1E
1E
1E
1E
1E
1E
1E
1E
3E
3E
7E
FC
FC
F8
F0
E0
ENDCHAR

STARTCHAR asciicircum
ENCODING 94
SWIDTH 600 0
DWIDTH 19 0
BBX 15 14 2 11
BITMAP
03C0
07C0
07E0
0FE0
0FF0
1FF0
1EF8
3E78
3C78
7C3C
783C
781E
F81E
F01E
ENDCHAR

STARTCHAR underscore
ENCODING 95
SWIDTH 500 0
DWIDTH 16 0
BBX 16 3 0 -5
BITMAP
FFFF
FFFF
FFFF
ENDCHAR

STARTCHAR quoteleft
ENCODING 96
SWIDTH 280 0
DWIDTH 9 0
BBX 4 9 2 16
BITMAP
30
70
F0
E0
C0
F0
F0
F0
F0
ENDCHAR

STARTCHAR a
ENCODING 97
SWIDTH 660 0
DWIDTH 21 0
BBX 19 19 1 0
BITMAP
03E1E0
0FFDE0
3FFFE0
3FFFE0
7E0FE0
FC07E0
F803E0
F803E0
F001E0
F001E0
F001E0
F803E0
F803E0
FC07E0
7E0FE0
3FFFE0
3FFFE0
1FFDE0
03E1E0
ENDCHAR

STARTCHAR b
ENCODING 98
SWIDTH 660 0
DWIDTH 21 0
BBX 18 25 2 0
BITMAP
F00000
F00000
F00000
F00000
F00000
F00000
F3F800
F7FE00
FFFF00
FFFF00
FF3F80
FC0F80
F807C0
F007C0
F003C0
F003C0
F003C0
F003C0
F807C0
F80F80
FE1F80
FFFF00
FFFF00
F7FE00
F1F000
ENDCHAR

STARTCHAR c
ENCODING 99
SWIDTH 640 0
DWIDTH 21 0
BBX 18 19 1 0
BITMAP
03F800
0FFE00
1FFF00
3FFF80
7F3F80
7C0FC0
F807C0
F80000
F00000
F00000
F00000
F80000
F80000
7C0FC0
7F1F80
3FFF80
1FFF00
0FFE00
03F800
ENDCHAR

STARTCHAR d
ENCODING 100
SWIDTH 660 0
DWIDTH 21 0
BBX 18 25 1 0
BITMAP
0003C0
0003C0
0003C0
0003C0
0003C0
0003C0
07F3C0
0FFBC0
1FFFC0
3FFFC0
7F3FC0
7C0FC0
F807C0
F803C0
F003C0
F003C0
F003C0
F003C0
F807C0
7C07C0
7E1FC0
3FFFC0
3FFFC0
0FFBC0
03E3C0
ENDCHAR

STARTCHAR e
ENCODING 101
SWIDTH 640 0
DWIDTH 21 0
BBX 18 19 1 0
BITMAP
03F000
0FFC00
1FFE00
3FFF00
7F3F80
7C0F80
F807C0
F803C0
FFFFC0
FFFFC0
FFFFC0
FFFFC0
F80000
F80000
7E1F80
3FFF00
3FFF00
0FFC00
07F000
ENDCHAR

STARTCHAR f
ENCODING 102
SWIDTH 280 0
DWIDTH 9 0
BBX 9 25 0 0
BITMAP
0780
0F80
1F80
3F80
3E00
3C00
FF80
FF80
FF80
FF80
3C00
3C00
3C00
3C00
3C00
3C00
3C00
3C00
3C00
3C00
3C00
3C00
3C00
3C00
3C00
ENDCHAR

STARTCHAR g
ENCODING 103
SWIDTH 660 0
DWIDTH 21 0
BBX 19 26 1 -7
BITMAP
01F1E0
0FFDE0
3FFFE0
3FFFE0
7E0FE0
FC07E0
F803E0
F803E0
F001E0
F001E0
F801E0
F803E0
F803E0
7C07E0
7F1FE0
3FFFE0
1FFFE0
0FFDE0
03F3E0
0003E0
7C07C0
7F3FC0
7FFF80
3FFF00
0FFE00
03F800
ENDCHAR

STARTCHAR h
ENCODING 104
SWIDTH 600 0
DWIDTH 19 0
BBX 15 25 2 0
BITMAP
F000
F000
F000
F000
F000
F000
F7E0
FFF8
FFFC
FFFC
FEFE
F83E
F83E
F01E
F01E
F01E
F01E
F01E
F01E
F01E
F01E
F01E
F01E
F01E
F01E
ENDCHAR

STARTCHAR i
ENCODING 105
SWIDTH 240 0
DWIDTH 8 0
BBX 4 25 2 0
BITMAP
F0
F0
F0
F0
00
00
F0
F0
F0
F0
F0
F0
F0
F0
F0
F0
F0
F0
F0
F0
F0
F0
F0
F0
F0
ENDCHAR

STARTCHAR j
ENCODING 106
SWIDTH 260 0
DWIDTH 9 0
BBX 6 31 0 -6
BITMAP
3C
3C
3C
3C
00
00
3C
3C
3C
3C
3C
3C
3C
3C
3C
3C
3C
3C
3C
3C
3C
3C
3C
3C
3C
3C
7C
F8
F8
F0
E0
ENDCHAR

STARTCHAR k
ENCODING 107
SWIDTH 580 0
DWIDTH 19 0
BBX 15 25 2 0
BITMAP
F000
F000
F000
F000
F000
F000
F07C
F07C
F0F8
F1F0
F1F0
F3E0
F3C0
F7C0
FF80
FF80
FF80
F7C0
F3E0
F3F0
F1F0
F0F8
F0FC
F07E
F03E
ENDCHAR

STARTCHAR l
ENCODING 108
SWIDTH 240 0
DWIDTH 8 0
BBX 4 25 2 0
BITMAP
F0
F0
F0
F0
F0
F0
F0
F0
F0
F0
F0
F0
F0
F0
F0
F0
F0
F0
F0
F0
F0
F0
F0
F0
F0
ENDCHAR

STARTCHAR m
ENCODING 109
SWIDTH 940 0
DWIDTH 30 0
BBX 26 19 2 0
BITMAP
F3E0FC00
FFFBFF00
FFFFFF80
FFFFFF80
FC7F8FC0
F83F07C0
F83F03C0
F01E03C0
F01E03C0
F01E03C0
F01E03C0
F01E03C0
F01E03C0
F01E03C0
F01E03C0
F01E03C0
F01E03C0
F01E03C0
F01E03C0
ENDCHAR

STARTCHAR n
ENCODING 110
SWIDTH 600 0
DWIDTH 19 0
BBX 15 19 2 0
BITMAP
F3E0
FFF8
FFFC
FFFC
FC7E
F83E
F83E
F01E
F01E
F01E
F01E
F01E
F01E
F01E
F01E
F01E
F01E
F01E
F01E
ENDCHAR

STARTCHAR o
ENCODING 111
SWIDTH 640 0
DWIDTH 21 0
BBX 19 19 1 0
BITMAP
03F800
0FFE00
1FFF00
3FFF80
7F1FC0
7C07C0
F803E0
F803E0
F001E0
F001E0
F001E0
F803E0
F803E0
7C07C0
7F1FC0
3FFF80
1FFF00
0FFE00
03F800
ENDCHAR

STARTCHAR p
ENCODING 112
SWIDTH 660 0
DWIDTH 21 0
BBX 18 25 2 -6
BITMAP
F1F000
F7FE00
FFFF00
FFFF80
FE1F80
F80FC0
F807C0
F007C0
F003C0
F003C0
F003C0
F007C0
F807C0
FC0F80
FF3F80
FFFF00
FFFF00
F7FE00
F3F800
F00000
F00000
F00000
F00000
F00000
F00000
ENDCHAR

STARTCHAR q
ENCODING 113
SWIDTH 660 0
DWIDTH 21 0
BBX 18 25 1 -6
BITMAP
03E3C0
0FFBC0
3FFFC0
3FFFC0
7E1FC0
7C07C0
F807C0
F003C0
F003C0
F003C0
F003C0
F803C0
F807C0
7C0FC0
7F3FC0
3FFFC0
3FFFC0
1FFBC0
07F3C0
0003C0
0003C0
0003C0
0003C0
0003C0
0003C0
ENDCHAR

STARTCHAR r
ENCODING 114
SWIDTH 320 0
DWIDTH 10 0
BBX 8 19 2 0
BITMAP
F7
FF
FF
FF
FE
F8
F0
F0
F0
F0
F0
F0
F0
F0
F0
F0
F0
F0
F0
ENDCHAR

STARTCHAR s
ENCODING 115
SWIDTH 440 0
DWIDTH 14 0
BBX 13 19 0 0
BITMAP
0FC0
3FE0
3FF0
7FF0
7CF8
7800
7C00
7F00
3FC0
1FF0
07F8
01F8
0078
F878
7CF8
7FF8
7FF0
3FE0
0FC0
ENDCHAR

STARTCHAR t
ENCODING 116
SWIDTH 300 0
DWIDTH 10 0
BBX 9 25 0 0
BITMAP
3C00
3C00
3C00
3C00
3C00
3C00
FF80
FF80
FF80
FF80
3C00
3C00
3C00
3C00
3C00
3C00
3C00
3C00
3C00
3C00
3C00
3C00
3C00
3C00
3C00
ENDCHAR

STARTCHAR u
ENCODING 117
SWIDTH 600 0
DWIDTH 19 0
BBX 15 19 2 0
BITMAP
F01E
F01E
F01E
F01E
F01E
F01E
F01E
F01E
F01E
F01E
F01E
F01E
F03E
F83E
FC7E
7FFE
7FFE
3FFE
0F9E
ENDCHAR

STARTCHAR v
ENCODING 118
SWIDTH 560 0
DWIDTH 18 0
BBX 18 19 0 0
BITMAP
F807C0
780F80
7C0F80
7C0F80
3C1F00
3C1F00
3E1E00
1E3E00
1E3E00
1F7C00
0F7C00
0F7800
07F800
07F800
07F000
03F000
03E000
03E000
01E000
ENDCHAR

STARTCHAR w
ENCODING 119
SWIDTH 800 0
DWIDTH 26 0
BBX 24 19 1 0
BITMAP
F07C1F
F07C1F
F87C1E
787C1E
78FE3E
78FE3C
38FE3C
3CEE3C
3DEF78
3DEF78
1DC778
1FC7F0
1FC7F0
0FC7F0
0F83E0
0F83E0
0783E0
0701C0
0701C0
ENDCHAR

STARTCHAR x
ENCODING 120
SWIDTH 560 0
DWIDTH 18 0
BBX 17 19 0 0
BITMAP
7C1F00
7E3F00
3E3E00
1F7C00
1F7C00
0FF800
0FF800
07F000
07F000
03E000
07F000
0FF800
0FF800
1F7C00
1F7C00
3E3E00
7E3F00
7C1F00
F80F80
ENDCHAR

STARTCHAR y
ENCODING 121
SWIDTH 580 0
DWIDTH 19 0
BBX 18 25 0 -6
BITMAP
F807C0
7C0F80
7C0F80
7C0F80
3E1F00
3E1F00
3E1E00
1F3E00
1F3E00
0F3C00
0FFC00
0FF800
07F800
07F800
07F000
03F000
03E000
03E000
03E000
07C000
07C000
078000
0F8000
0F8000
0F0000
ENDCHAR

STARTCHAR z
ENCODING 122
SWIDTH 460 0
DWIDTH 15 0
BBX 14 19 1 0
BITMAP
FFF8
FFF8
FFF8
FFF8
01F8
01F0
03E0
07E0
07C0
0F80
1F00
3F00
3E00
7C00
FC00
FFFC
FFFC
FFFC
FFFC
ENDCHAR

STARTCHAR braceleft
ENCODING 123
SWIDTH 340 0
DWIDTH 11 0
BBX 7 30 2 -5
BITMAP
1E
1C
38
38
38
38
38
38
38
38
38
38
38
70
E0
70
38
38
38
38
38
38
38
38
38
38
38
3C
1E
06
ENDCHAR

STARTCHAR bar
ENCODING 124
SWIDTH 600 0
DWIDTH 19 0
BBX 4 25 8 0
BITMAP
F0
F0
F0
F0
F0
F0
F0
F0
F0
F0
F0
F0
F0
F0
F0
F0
F0
F0
F0
F0
F0
F0
F0
F0
F0
ENDCHAR

STARTCHAR braceright
ENCODING 125
SWIDTH 340 0
DWIDTH 11 0
BBX 7 30 2 -5
BITMAP
F0
70
78
38
38
38
38
38
38
38
38
38
38
1C
0E
1C
38
38
38
38
38
38
38
38
38
38
38
78
70
C0
ENDCHAR

STARTCHAR asciitilde
ENCODING 126
SWIDTH 600 0
DWIDTH 19 0
BBX 15 6 2 8
BITMAP
1E0C
3F9E
7FFE
FFFC
F3F8
60F0
ENDCHAR

STARTCHAR exclamdown
ENCODING 161
SWIDTH 280 0
DWIDTH 9 0
BBX 4 25 2 -6
BITMAP
F0
F0
F0
F0
00
00
00
F0
F0
F0
F0
F0
F0
F0
F0
F0
F0
F0
F0
F0
F0
F0
F0
F0
F0
ENDCHAR

STARTCHAR cent
ENCODING 162
SWIDTH 560 0
DWIDTH 18 0
BBX 15 22 1 1
BITMAP
03C0
03C0
03C0
07F0
1FF8
3FFC
7FFE
7C3E
781E
F800
F800
F800
7800
7C3E
7FFE
3FFC
1FF8
07F0
03C0
03C0
03C0
03C0
ENDCHAR

STARTCHAR sterling
ENCODING 163
SWIDTH 560 0
DWIDTH 18 0
BBX 18 25 0 0
BITMAP
03F000
0FFC00
1FFE00
3FFE00
3F3F00
7C1F00
7C0F00
780000
780000
780000
7C0000
FFF800
FFF800
FFF800
FFF800
0FC000
07C3C0
03C3C0
03C3C0
03C7C0
07CFC0
7FFF80
7FFF80
7FFF00
7FFC00
ENDCHAR

STARTCHAR currency
ENCODING 164
SWIDTH 560 0
DWIDTH 18 0
BBX 16 16 1 5
BITMAP
67E6
7FFE
FFFF
7FFE
7C3E
F81F
F00F
F00F
F00F
F00F
F81F
7C3E
7FFE
FFFF
7FFE
67E6
ENDCHAR

STARTCHAR yen
ENCODING 165
SWIDTH 560 0
DWIDTH 18 0
BBX 20 25 -1 0
BITMAP
F801F0
7C03E0
7C03E0
3E07C0
3E07C0
1E0780
1F0F80
0F0F00
0F9F00
7F9FE0
7FFFE0
7FFFE0
03FC00
01F800
01F800
00F000
3FFFC0
3FFFC0
3FFFC0
00F000
00F000
00F000
00F000
00F000
00F000
ENDCHAR

STARTCHAR brokenbar
ENCODING 166
SWIDTH 600 0
DWIDTH 20 0
BBX 4 25 8 0
BITMAP
F0
F0
F0
F0
F0
F0
F0
F0
F0
F0
00
00
00
00
00
F0
F0
F0
F0
F0
F0
F0
F0
F0
F0
ENDCHAR

STARTCHAR section
ENCODING 167
SWIDTH 560 0
DWIDTH 18 0
BBX 16 31 1 -5
BITMAP
07E0
0FF8
1FFC
3FFC
3E7E
3C1E
3C00
3E00
1F80
3FE0
7FF0
7FFC
79FE
F07E
F81F
FC0F
7F0F
7F8F
3FFE
0FFC
03FC
01FC
007E
003E
781E
7C1E
7E7E
3FFC
1FFC
0FF8
07E0
ENDCHAR

STARTCHAR dieresis
ENCODING 168
SWIDTH 500 0
DWIDTH 16 0
BBX 11 4 2 21
BITMAP
F1E0
F1E0
F1E0
F1E0
ENDCHAR

STARTCHAR copyright
ENCODING 169
SWIDTH 740 0
DWIDTH 24 0
BBX 24 25 0 0
BITMAP
00FF00
03FFC0
0FC3F0
1E0078
1C0038
383E1C
70FF0E
71F78E
E1C1C7
E381C7
C38003
C38003
C38003
C38003
C38003
E3C1C7
E1C1C7
60F78E
70FF0E
383E1C
3C003C
1E0078
0FC3F0
03FFC0
00FF00
ENDCHAR

STARTCHAR ordfeminine
ENCODING 170
SWIDTH 360 0
DWIDTH 12 0
BBX 10 14 1 11
BITMAP
1EC0
7FC0
73C0
E1C0
C0C0
C0C0
E1C0
73C0
7FC0
1EC0
0000
0000
FFC0
FFC0
ENDCHAR

STARTCHAR guillemotleft
ENCODING 171
SWIDTH 460 0
DWIDTH 15 0
BBX 11 10 1 6
BITMAP
1860
38E0
79E0
F3C0
E380
E380
F3C0
79E0
38E0
1860
ENDCHAR

STARTCHAR logicalnot
ENCODING 172
SWIDTH 600 0
DWIDTH 19 0
BBX 16 10 2 6
BITMAP
FFFF
FFFF
FFFF
FFFF
000F
000F
000F
000F
000F
000F
ENDCHAR

STARTCHAR hyphen
ENCODING 173
SWIDTH 420 0
DWIDTH 14 0
BBX 9 4 2 9
BITMAP
FF80
FF80
FF80
FF80
ENDCHAR

STARTCHAR registered
ENCODING 174
SWIDTH 740 0
DWIDTH 24 0
BBX 24 25 0 0
BITMAP
00FF00
03FFC0
07E3F0
0F0078
1C0038
38001C
71FF8E
71FFCE
61C1E6
E1C0E7
E1C0E7
C1C1E3
C1FFC3
C1FF83
C1C703
E1C707
E1C387
61C386
71C1CE
39C1DC
3C003C
1E0078
0FC3F0
03FFC0
00FF00
ENDCHAR

STARTCHAR macron
ENCODING 175
SWIDTH 420 0
DWIDTH 14 0
BBX 9 4 2 20
BITMAP
FF80
FF80
FF80
FF80
ENDCHAR

STARTCHAR degree
ENCODING 176
SWIDTH 400 0
DWIDTH 13 0
BBX 9 10 2 15
BITMAP
1C00
7F00
6300
C180
C180
C180
C180
6300
7F00
1C00
ENDCHAR

STARTCHAR plusminus
ENCODING 177
SWIDTH 600 0
DWIDTH 19 0
BBX 16 19 2 0
BITMAP
03C0
03C0
03C0
03C0
03C0
FFFF
FFFF
FFFF
FFFF
03C0
03C0
03C0
03C0
0000
0000
FFFF
FFFF
FFFF
FFFF
ENDCHAR

STARTCHAR twosuperior
ENCODING 178
SWIDTH 336 0
DWIDTH 11 0
BBX 10 15 0 10
BITMAP
1E00
3F80
7F80
F1C0
E1C0
81C0
03C0
0780
0F00
1E00
3C00
7800
FFC0
FFC0
FFC0
ENDCHAR

STARTCHAR threesuperior
ENCODING 179
SWIDTH 336 0
DWIDTH 11 0
BBX 10 15 0 10
BITMAP
1F00
3F80
7FC0
71C0
03C0
0F80
0F00
0F80
01C0
00C0
E0C0
E1C0
7FC0
7F80
1F00
ENDCHAR

STARTCHAR acute
ENCODING 180
SWIDTH 420 0
DWIDTH 14 0
BBX 9 8 2 19
BITMAP
0200
0700
1F80
3F80
FF00
FC00
7800
2000
ENDCHAR

STARTCHAR mu
ENCODING 181
SWIDTH 576 0
DWIDTH 19 0
BBX 15 25 2 -6
BITMAP
F01E
F01E
F01E
F01E
F01E
F01E
F01E
F01E
F01E
F01E
F01E
F01E
F83E
F83E
FEFE
FFFE
FFFE
FFFE
F7DE
F000
F000
F000
F000
F000
F000
ENDCHAR

STARTCHAR paragraph
ENCODING 182
SWIDTH 600 0
DWIDTH 19 0
BBX 16 29 1 -4
BITMAP
07FF
1FFF
3FFF
7FFF
7FC7
7FC7
FFC7
FFC7
7FC7
7FC7
7FC7
3FC7
1FC7
07C7
01C7
01C7
01C7
01C7
01C7
01C7
01C7
01C7
01C7
01C7
01C7
01C7
01C7
01C7
01C7
ENDCHAR

STARTCHAR periodcentered
ENCODING 183
SWIDTH 280 0
DWIDTH 9 0
BBX 4 4 2 9
BITMAP
F0
F0
F0
F0
ENDCHAR

STARTCHAR cedilla
ENCODING 184
SWIDTH 340 0
DWIDTH 11 0
BBX 7 7 2 -7
BITMAP
20
78
EC
06
C6
7C
38
ENDCHAR

STARTCHAR onesuperior
ENCODING 185
SWIDTH 336 0
DWIDTH 11 0
BBX 5 15 3 10
BITMAP
F8
F8
F8
38
38
38
38
38
38
38
38
38
38
38
38
ENDCHAR

STARTCHAR ordmasculine
ENCODING 186
SWIDTH 360 0
DWIDTH 12 0
BBX 10 14 1 11
BITMAP
1E00
7F80
7380
E1C0
C0C0
C0C0
E1C0
7380
7F80
1E00
0000
0000
FFC0
FFC0
ENDCHAR

STARTCHAR guillemotright
ENCODING 187
SWIDTH 460 0
DWIDTH 15 0
BBX 11 10 3 6
BITMAP
C300
E380
F3C0
79E0
38E0
38E0
79E0
F3C0
E380
C300
ENDCHAR

STARTCHAR onequarter
ENCODING 188
SWIDTH 840 0
DWIDTH 27 0
BBX 24 25 1 0
BITMAP
F80380
F80700
F80700
380700
380E00
380E00
381E00
381C00
381C00
383800
38381C
38781C
38703C
38707C
38E07C
00E0FC
01E1DC
01C19C
01C39C
03871C
0387FF
0387FF
0707FF
07001C
07001C
ENDCHAR

STARTCHAR onehalf
ENCODING 189
SWIDTH 840 0
DWIDTH 27 0
BBX 24 25 1 0
BITMAP
F80700
F80F00
F80E00
380E00
381E00
381C00
381C00
383800
383800
387800
3870F8
3871FC
38F3FE
38E78F
38E707
01C407
01C00F
03C01E
03803C
038078
0701F0
0703E0
0F07FF
0E07FF
0E07FF
ENDCHAR

STARTCHAR threequarters
ENCODING 190
SWIDTH 840 0
DWIDTH 27 0
BBX 27 25 0 0
BITMAP
0F007000
3F807000
3FC07000
39C0E000
01C0E000
0781E000
0781C000
0FC1C000
01C38000
00E38000
00E38380
E0E70380
F1E70780
7FCF0F80
3F8E0F80
0E0E1F80
001C3B80
001C3380
003C7380
0038E380
0038FFE0
0070FFE0
0070FFE0
00F00380
00E00380
ENDCHAR

STARTCHAR questiondown
ENCODING 191
SWIDTH 560 0
DWIDTH 18 0
BBX 14 25 3 -6
BITMAP
0780
0780
0780
0780
0000
0000
0000
0780
0780
0F80
0F80
1F00
3F00
7E00
FC00
F800
F000
F000
F03C
F07C
FCFC
7FF8
7FF8
3FF0
0FC0
ENDCHAR

STARTCHAR Agrave
ENCODING 192
SWIDTH 740 0
DWIDTH 24 0
BBX 23 27 0 0
BITMAP
018000
03E000
07F000
03FC00
00FC00
007800
007C00
00FE00
00FE00
01FF00
01FF00
03FF80
03EF80
07C7C0
07C7C0
0F83E0
0FFFE0
0FFFE0
1FFFF0
1FFFF0
1F00F0
3E00F8
3E00F8
7C007C
7C007C
7C007C
F8003E
ENDCHAR

STARTCHAR Aacute
ENCODING 193
SWIDTH 740 0
DWIDTH 24 0
BBX 23 27 0 0
BITMAP
000300
000F00
001F80
007F80
007E00
003C00
007C00
007C00
00FE00
00FE00
01FF00
01FF00
03FF80
03EF80
07C7C0
07C7C0
0F83E0
0FFFE0
1FFFF0
1FFFF0
1F01F0
3E00F8
3E00F8
7C007C
7C007C
78003C
F8003E
ENDCHAR

STARTCHAR Acircumflex
ENCODING 194
SWIDTH 740 0
DWIDTH 24 0
BBX 23 27 0 0
BITMAP
007C00
00FE00
01FF00
03EF80
03C780
000000
007C00
007C00
00FE00
00FE00
01FF00
01FF00
03FF80
03EF80
07C7C0
07C7C0
0F83E0
0FFFE0
1FFFF0
1FFFF0
1F01F0
3E00F8
3E00F8
7C007C
7C007C
78003C
F8003E
ENDCHAR

STARTCHAR Atilde
ENCODING 195
SWIDTH 740 0
DWIDTH 24 0
BBX 23 27 0 0
BITMAP
00F300
01FF00
01FF00
019E00
000000
000000
007C00
00FE00
00FE00
01FF00
01FF00
03FF80
03EF80
07C7C0
07C7C0
0F83E0
0FFFE0
0FFFE0
1FFFF0
1FFFF0
1F00F0
3E00F8
3E00F8
7C007C
7C007C
7C007C
F8003E
ENDCHAR

STARTCHAR Adieresis
ENCODING 196
SWIDTH 740 0
DWIDTH 24 0
BBX 23 27 0 0
BITMAP
03C780
03C780
03C780
03C780
000000
000000
007C00
007C00
00FE00
00FE00
01FF00
01FF00
03FF80
03EF80
07C7C0
07C7C0
0F83E0
0FFFE0
1FFFF0
1FFFF0
1F01F0
3E00F8
3E00F8
7C007C
7C007C
78003C
F8003E
ENDCHAR

STARTCHAR Aring
ENCODING 197
SWIDTH 740 0
DWIDTH 24 0
BBX 23 27 0 0
BITMAP
007C00
00FE00
00EE00
00EE00
00FE00
007C00
007C00
00FE00
00FE00
01FF00
01FF00
03FF80
03EF80
07C7C0
07C7C0
0F83E0
0FFFE0
0FFFE0
1FFFF0
1FFFF0
1F00F0
3E00F8
3E00F8
7C007C
7C007C
7C007C
F8003E
ENDCHAR

STARTCHAR AE
ENCODING 198
SWIDTH 900 0
DWIDTH 29 0
BBX 26 25 1 0
BITMAP
0001FFC0
0003FFC0
0003FFC0
0007FFC0
000FE000
000FE000
001FE000
001FE000
003FE000
007DE000
0079E000
00F9FFC0
00F1FFC0
01F1FFC0
03FFFFC0
03FFE000
07FFE000
0FFFE000
0FFFE000
1F01E000
1F01E000
3E01FFC0
7E01FFC0
7C01FFC0
F801FFC0
ENDCHAR

STARTCHAR Ccedilla
ENCODING 199
SWIDTH 780 0
DWIDTH 25 0
BBX 23 32 1 -7
BITMAP
00FF00
03FFC0
0FFFF0
1FFFF8
3FE3FC
3F00FC
7E007E
7C0000
F80000
F80000
F80000
F00000
F00000
F00000
F80000
F80000
F80000
7C0000
7E007C
3F00FC
1FE3FC
1FFFF8
0FFFF0
03FFC0
00FF00
002000
007800
00EC00
000600
00C600
007C00
003800
ENDCHAR

STARTCHAR Egrave
ENCODING 200
SWIDTH 520 0
DWIDTH 17 0
BBX 13 27 2 0
BITMAP
1800
3C00
7F00
1F80
0FC0
0380
FFF8
FFF8
FFF8
FFF8
F000
F000
F000
FFF0
FFF0
FFF0
FFF0
F000
F000
F000
F000
F000
F000
FFF8
FFF8
FFF8
FFF8
ENDCHAR

STARTCHAR Eacute
ENCODING 201
SWIDTH 520 0
DWIDTH 17 0
BBX 13 27 2 0
BITMAP
0080
01C0
03E0
0FE0
1F80
0F00
FFF0
FFF0
FFF0
FFF0
F000
F000
F000
F000
FFF0
FFF0
FFF0
FFF0
F000
F000
F000
F000
F000
FFF8
FFF8
FFF8
FFF8
ENDCHAR

STARTCHAR Ecircumflex
ENCODING 202
SWIDTH 520 0
DWIDTH 17 0
BBX 13 27 2 0
BITMAP
0F80
1FC0
3FE0
7DF0
78F0
0000
FFF8
FFF8
FFF8
FFF8
F000
F000
F000
F000
FFF0
FFF0
FFF0
FFF0
F000
F000
F000
F000
F000
FFF8
FFF8
FFF8
FFF8
ENDCHAR

STARTCHAR Edieresis
ENCODING 203
SWIDTH 520 0
DWIDTH 17 0
BBX 13 27 2 0
BITMAP
78F0
78F0
78F0
78F0
0000
0000
FFF8
FFF8
FFF8
FFF8
F000
F000
F000
F000
FFF0
FFF0
FFF0
FFF0
F000
F000
F000
F000
F000
FFF8
FFF8
FFF8
FFF8
ENDCHAR

STARTCHAR Igrave
ENCODING 204
SWIDTH 280 0
DWIDTH 9 0
BBX 8 27 -1 0
BITMAP
30
78
FE
3F
1E
04
1E
1E
1E
1E
1E
1E
1E
1E
1E
1E
1E
1E
1E
1E
1E
1E
1E
1E
1E
1E
1E
ENDCHAR

STARTCHAR Iacute
ENCODING 205
SWIDTH 280 0
DWIDTH 9 0
BBX 8 27 2 0
BITMAP
06
0F
3F
FC
78
20
F0
F0
F0
F0
F0
F0
F0
F0
F0
F0
F0
F0
F0
F0
F0
F0
F0
F0
F0
F0
F0
ENDCHAR

STARTCHAR Icircumflex
ENCODING 206
SWIDTH 280 0
DWIDTH 9 0
BBX 11 27 -1 0
BITMAP
1F00
3F80
7FC0
FBE0
F1E0
0000
1E00
1E00
1E00
1E00
1E00
1E00
1E00
1E00
1E00
1E00
1E00
1E00
1E00
1E00
1E00
1E00
1E00
1E00
1E00
1E00
1E00
ENDCHAR

STARTCHAR Idieresis
ENCODING 207
SWIDTH 280 0
DWIDTH 9 0
BBX 11 27 -1 0
BITMAP
F1E0
F1E0
F1E0
F1E0
0000
0000
1E00
1E00
1E00
1E00
1E00
1E00
1E00
1E00
1E00
1E00
1E00
1E00
1E00
1E00
1E00
1E00
1E00
1E00
1E00
1E00
1E00
ENDCHAR

STARTCHAR Eth
ENCODING 208
SWIDTH 742 0
DWIDTH 24 0
BBX 22 25 0 0
BITMAP
1FFC00
1FFF00
1FFFC0
1FFFE0
1E0FF0
1E03F0
1E01F8
1E00F8
1E007C
1E007C
1E003C
FFE03C
FFE03C
FFE03C
FFE03C
1E007C
1E007C
1E00F8
1E01F8
1E03F0
1E0FF0
1FFFE0
1FFFC0
1FFF80
1FFC00
ENDCHAR

STARTCHAR Ntilde
ENCODING 209
SWIDTH 740 0
DWIDTH 24 0
BBX 19 27 2 0
BITMAP
03CC00
07FC00
07FC00
067800
000000
000000
F801E0
FC01E0
FE01E0
FE01E0
FF01E0
FF81E0
F7C1E0
F3C1E0
F3E1E0
F1F1E0
F0F1E0
F0F9E0
F07DE0
F03DE0
F03FE0
F01FE0
F00FE0
F00FE0
F007E0
F007E0
F003E0
ENDCHAR

STARTCHAR Ograve
ENCODING 210
SWIDTH 840 0
DWIDTH 27 0
BBX 24 27 1 0
BITMAP
003000
007800
00FC00
007E00
003F00
001E00
00FF00
03FFC0
0FFFF0
1FFFF8
3FE7FC
3F00FC
7E007E
7C003E
F8001F
F8001F
F8001F
F8001F
F8001F
7C003E
7E007E
3F00FC
3FE7FC
1FFFF8
0FFFF0
03FFC0
00FF00
ENDCHAR

STARTCHAR Oacute
ENCODING 211
SWIDTH 840 0
DWIDTH 27 0
BBX 24 27 1 0
BITMAP
000600
000F00
001F80
003F00
007E00
003C00
00FF00
03FFC0
0FFFF0
1FFFF8
3FE7FC
3F00FC
7E007E
7C003E
F8001F
F8001F
F8001F
F8001F
F8001F
7C003E
7E007E
3F00FC
3FE7FC
1FFFF8
0FFFF0
03FFC0
00FF00
ENDCHAR

STARTCHAR Ocircumflex
ENCODING 212
SWIDTH 840 0
DWIDTH 27 0
BBX 24 27 1 0
BITMAP
007C00
00FE00
01FF00
03EF80
03C780
000000
00FF00
03FFC0
0FFFF0
1FFFF8
3FE7FC
3F00FC
7E007E
7C003E
F8001F
F8001F
F8001F
F8001F
F8001F
7C003E
7E007E
3F00FC
3FE7FC
1FFFF8
0FFFF0
03FFC0
00FF00
ENDCHAR

STARTCHAR Otilde
ENCODING 213
SWIDTH 840 0
DWIDTH 27 0
BBX 24 27 1 0
BITMAP
00F300
01FF00
01FF00
019E00
000000
000000
00FF00
03FFC0
0FFFF0
1FFFF8
3FE7FC
3F00FC
7E007E
7C003E
F8001F
F8001F
F8001F
F8001F
F8001F
7C003E
7E007E
3F00FC
3FE7FC
1FFFF8
0FFFF0
03FFC0
00FF00
ENDCHAR

STARTCHAR Odieresis
ENCODING 214
SWIDTH 840 0
DWIDTH 27 0
BBX 24 27 1 0
BITMAP
03C780
03C780
03C780
03C780
000000
000000
00FF00
03FFC0
0FFFF0
1FFFF8
3FE7FC
3F00FC
7E007E
7C003E
F8001F
F8001F
F8001F
F8001F
F8001F
7C003E
7E007E
3F00FC
3FE7FC
1FFFF8
0FFFF0
03FFC0
00FF00
ENDCHAR

STARTCHAR multiply
ENCODING 215
SWIDTH 600 0
DWIDTH 19 0
BBX 16 17 2 2
BITMAP
2004
700E
F81F
FC3F
7E7E
3FFC
1FF8
0FF0
07E0
0FF0
1FF8
3FFC
7E7E
FC3F
F81F
700E
2004
ENDCHAR

STARTCHAR Oslash
ENCODING 216
SWIDTH 840 0
DWIDTH 27 0
BBX 24 29 1 -2
BITMAP
000010
00003C
00FF7C
03FFFC
0FFFF8
1FFFF8
3FE7F8
3F03FC
7E07FE
7C07FE
F80F9F
F81F9F
F81F1F
F03E0F
F07E0F
F07C0F
F8F81F
F9F81F
F9F01F
7FE03E
7FE07E
3FC0FC
1FE7F8
1FFFF8
1FFFE0
3FFFC0
3EFF00
1C0000
0C0000
ENDCHAR

STARTCHAR Ugrave
ENCODING 217
SWIDTH 640 0
DWIDTH 21 0
BBX 16 27 2 0
BITMAP
0400
0E00
1F80
1FC0
0FF0
03F0
F1EF
F04F
F00F
F00F
F00F
F00F
F00F
F00F
F00F
F00F
F00F
F00F
F00F
F81F
F81F
FC3F
7E7E
7FFE
3FFC
1FF8
07E0
ENDCHAR

STARTCHAR Uacute
ENCODING 218
SWIDTH 640 0
DWIDTH 21 0
BBX 16 27 2 0
BITMAP
0010
0038
00FC
01FC
07F8
07E0
F3CF
F10F
F00F
F00F
F00F
F00F
F00F
F00F
F00F
F00F
F00F
F00F
F00F
F81F
F81F
FC3F
7E7E
7FFE
3FFC
1FF8
07E0
ENDCHAR

STARTCHAR Ucircumflex
ENCODING 219
SWIDTH 640 0
DWIDTH 21 0
BBX 16 27 2 0
BITMAP
07C0
0FE0
1FF0
3EF8
3C78
0000
F00F
F00F
F00F
F00F
F00F
F00F
F00F
F00F
F00F
F00F
F00F
F00F
F00F
F81F
F81F
FC3F
7E7E
7FFE
3FFC
1FF8
07E0
ENDCHAR

STARTCHAR Udieresis
ENCODING 220
SWIDTH 640 0
DWIDTH 21 0
BBX 16 27 2 0
BITMAP
3C78
3C78
3C78
3C78
0000
0000
F00F
F00F
F00F
F00F
F00F
F00F
F00F
F00F
F00F
F00F
F00F
F00F
F00F
F81F
F81F
FC3F
7E7E
7FFE
3FFC
1FF8
07E0
ENDCHAR

STARTCHAR Yacute
ENCODING 221
SWIDTH 620 0
DWIDTH 21 0
BBX 20 27 0 0
BITMAP
000600
001E00
003F00
00FF00
01FC00
00F000
F0C0F0
F801F0
7C03E0
3E07C0
1F0F80
0F9F00
07FE00
03FC00
01F800
00F000
00F000
00F000
00F000
00F000
00F000
00F000
00F000
00F000
00F000
00F000
00F000
ENDCHAR

STARTCHAR Thorn
ENCODING 222
SWIDTH 560 0
DWIDTH 18 0
BBX 15 25 2 0
BITMAP
F000
F000
F000
F000
F000
FFE0
FFF8
FFFC
FFFC
F0FE
F03E
F01E
F01E
F03E
F03E
F0FE
FFFC
FFFC
FFF8
FFE0
F000
F000
F000
F000
F000
ENDCHAR

STARTCHAR germandbls
ENCODING 223
SWIDTH 600 0
DWIDTH 19 0
BBX 16 25 2 0
BITMAP
0FC0
3FE0
3FF0
7FF0
7CF8
F878
F078
F078
F078
F0F8
F3F0
F3F0
F3FC
F3FE
F0FE
F01F
F00F
F00F
FE0F
FE0F
FF1F
FFFE
FFFE
F7FC
F3F8
ENDCHAR

STARTCHAR agrave
ENCODING 224
SWIDTH 660 0
DWIDTH 21 0
BBX 19 27 1 0
BITMAP
010000
038000
07E000
07F000
03FC00
00FC00
007800
001000
03E1E0
0FFDE0
3FFFE0
3FFFE0
7E0FE0
FC07E0
F803E0
F803E0
F001E0
F001E0
F001E0
F803E0
F803E0
FC07E0
7E0FE0
3FFFE0
3FFFE0
1FFDE0
03E1E0
ENDCHAR

STARTCHAR aacute
ENCODING 225
SWIDTH 660 0
DWIDTH 21 0
BBX 19 27 1 0
BITMAP
001000
003800
00FC00
01FC00
07F800
07E000
03C000
010000
03E1E0
0FFDE0
3FFFE0
3FFFE0
7E0FE0
FC07E0
F803E0
F803E0
F001E0
F001E0
F001E0
F803E0
F803E0
FC07E0
7E0FE0
3FFFE0
3FFFE0
1FFDE0
03E1E0
ENDCHAR

STARTCHAR acircumflex
ENCODING 226
SWIDTH 660 0
DWIDTH 21 0
BBX 19 25 1 0
BITMAP
01F000
03F800
07FC00
0FBE00
0F1E00
000000
03E1E0
0FFDE0
3FFFE0
3FFFE0
7E0FE0
FC07E0
F803E0
F803E0
F001E0
F001E0
F001E0
F803E0
F803E0
FC07E0
7E0FE0
3FFFE0
3FFFE0
1FFDE0
03E1E0
ENDCHAR

STARTCHAR atilde
ENCODING 227
SWIDTH 660 0
DWIDTH 21 0
BBX 19 25 1 0
BITMAP
03CC00
07FC00
07FC00
067800
000000
000000
03E1E0
0FFDE0
3FFFE0
3FFFE0
7E0FE0
FC07E0
F803E0
F803E0
F001E0
F001E0
F001E0
F803E0
F803E0
FC07E0
7E0FE0
3FFFE0
3FFFE0
1FFDE0
03E1E0
ENDCHAR

STARTCHAR adieresis
ENCODING 228
SWIDTH 660 0
DWIDTH 21 0
BBX 19 25 1 0
BITMAP
0F1E00
0F1E00
0F1E00
0F1E00
000000
000000
03E1E0
0FFDE0
3FFFE0
3FFFE0
7E0FE0
FC07E0
F803E0
F803E0
F001E0
F001E0
F001E0
F803E0
F803E0
FC07E0
7E0FE0
3FFFE0
3FFFE0
1FFDE0
03E1E0
ENDCHAR

STARTCHAR aring
ENCODING 229
SWIDTH 660 0
DWIDTH 21 0
BBX 19 27 1 0
BITMAP
01F000
03F800
03B800
03B800
03F800
01F000
000000
000000
03E1E0
0FFDE0
3FFFE0
3FFFE0
7E0FE0
FC07E0
F803E0
F803E0
F001E0
F001E0
F001E0
F803E0
F803E0
FC07E0
7E0FE0
3FFFE0
3FFFE0
1FFDE0
03E1E0
ENDCHAR

STARTCHAR ae
ENCODING 230
SWIDTH 1080 0
DWIDTH 35 0
BBX 32 19 1 0
BITMAP
03F3CFE0
0FFFDFF0
1FFFFFF8
3FFFFFFC
7F3FFCFE
7C0FF03E
F807E01F
F807C01F
F003FFFF
F003FFFF
F003FFFF
F003FFFF
F807E000
7C0FE000
7E1FF87E
3FFFFFFC
3FFFFFF8
0FFFFFF0
07F3CFC0
ENDCHAR

STARTCHAR ccedilla
ENCODING 231
SWIDTH 640 0
DWIDTH 21 0
BBX 18 26 1 -7
BITMAP
03F800
0FFE00
1FFF00
3FFF80
7F3F80
7C0FC0
F807C0
F80000
F00000
F00000
F00000
F80000
F80000
7C0FC0
7F1F80
3FFF80
1FFF00
0FFE00
03F800
010000
03C000
076000
003000
063000
03E000
01C000
ENDCHAR

STARTCHAR egrave
ENCODING 232
SWIDTH 640 0
DWIDTH 21 0
BBX 18 27 1 0
BITMAP
020000
070000
0FC000
0FE000
07F800
01F800
00F000
002000
03F000
0FFC00
1FFE00
3FFF00
7F3F80
7C0F80
F807C0
F803C0
FFFFC0
FFFFC0
FFFFC0
FFFFC0
F80000
F80000
7E1F80
3FFF00
3FFF00
0FFC00
07F000
ENDCHAR

STARTCHAR eacute
ENCODING 233
SWIDTH 640 0
DWIDTH 21 0
BBX 18 27 1 0
BITMAP
002000
007000
01F800
03F800
0FF000
0FC000
078000
020000
03F000
0FFC00
1FFE00
3FFF00
7F3F80
7C0F80
F807C0
F803C0
FFFFC0
FFFFC0
FFFFC0
FFFFC0
F80000
F80000
7E1F80
3FFF00
3FFF00
0FFC00
07F000
ENDCHAR

STARTCHAR ecircumflex
ENCODING 234
SWIDTH 640 0
DWIDTH 21 0
BBX 18 25 1 0
BITMAP
03E000
07F000
0FF800
1F7C00
1E3C00
000000
03F000
0FFC00
1FFE00
3FFF00
7F3F80
7C0F80
F807C0
F803C0
FFFFC0
FFFFC0
FFFFC0
FFFFC0
F80000
F80000
7E1F80
3FFF00
3FFF00
0FFC00
07F000
ENDCHAR

STARTCHAR edieresis
ENCODING 235
SWIDTH 640 0
DWIDTH 21 0
BBX 18 25 1 0
BITMAP
1E3C00
1E3C00
1E3C00
1E3C00
000000
000000
03F000
0FFC00
1FFE00
3FFF00
7F3F80
7C0F80
F807C0
F803C0
FFFFC0
FFFFC0
FFFFC0
FFFFC0
F80000
F80000
7E1F80
3FFF00
3FFF00
0FFC00
07F000
ENDCHAR

STARTCHAR igrave
ENCODING 236
SWIDTH 240 0
DWIDTH 8 0
BBX 9 27 0 0
BITMAP
2000
7000
FC00
FE00
7F80
1F80
0F00
0200
3C00
3C00
3C00
3C00
3C00
3C00
3C00
3C00
3C00
3C00
3C00
3C00
3C00
3C00
3C00
3C00
3C00
3C00
3C00
ENDCHAR

STARTCHAR iacute
ENCODING 237
SWIDTH 240 0
DWIDTH 8 0
BBX 9 27 0 0
BITMAP
0200
0700
1F80
3F80
FF00
FC00
7800
2000
3C00
3C00
3C00
3C00
3C00
3C00
3C00
3C00
3C00
3C00
3C00
3C00
3C00
3C00
3C00
3C00
3C00
3C00
3C00
ENDCHAR

STARTCHAR icircumflex
ENCODING 238
SWIDTH 240 0
DWIDTH 8 0
BBX 11 25 -1 0
BITMAP
1F00
3F80
7FC0
FBE0
F1E0
0000
1E00
1E00
1E00
1E00
1E00
1E00
1E00
1E00
1E00
1E00
1E00
1E00
1E00
1E00
1E00
1E00
1E00
1E00
1E00
ENDCHAR

STARTCHAR idieresis
ENCODING 239
SWIDTH 240 0
DWIDTH 8 0
BBX 11 25 -1 0
BITMAP
F1E0
F1E0
F1E0
F1E0
0000
0000
1E00
1E00
1E00
1E00
1E00
1E00
1E00
1E00
1E00
1E00
1E00
1E00
1E00
1E00
1E00
1E00
1E00
1E00
1E00
ENDCHAR

STARTCHAR eth
ENCODING 240
SWIDTH 640 0
DWIDTH 21 0
BBX 19 26 1 0
BITMAP
3C1800
3F7C00
07F000
07F000
0FF800
0E3C00
001E00
03FF00
0FFF80
1FFF80
3FFFC0
7F1FC0
7C07E0
F803E0
F803E0
F001E0
F001E0
F001E0
F803E0
F803E0
7C07C0
7F1FC0
3FFF80
1FFF00
0FFE00
03F800
ENDCHAR

STARTCHAR ntilde
ENCODING 241
SWIDTH 600 0
DWIDTH 19 0
BBX 15 25 2 0
BITMAP
0F30
1FF0
1FF0
19E0
0000
0000
F3E0
FFF8
FFFC
FFFC
FC7E
F83E
F83E
F01E
F01E
F01E
F01E
F01E
F01E
F01E
F01E
F01E
F01E
F01E
F01E
ENDCHAR

STARTCHAR ograve
ENCODING 242
SWIDTH 640 0
DWIDTH 21 0
BBX 19 27 1 0
BITMAP
010000
038000
07E000
07F000
03FC00
00FC00
007800
001000
03F800
0FFE00
1FFF00
3FFF80
7F1FC0
7C07C0
F803E0
F803E0
F001E0
F001E0
F001E0
F803E0
F803E0
7C07C0
7F1FC0
3FFF80
1FFF00
0FFE00
03F800
ENDCHAR

STARTCHAR oacute
ENCODING 243
SWIDTH 640 0
DWIDTH 21 0
BBX 19 27 1 0
BITMAP
001000
003800
00FC00
01FC00
07F800
07E000
03C000
010000
03F800
0FFE00
1FFF00
3FFF80
7F1FC0
7C07C0
F803E0
F803E0
F001E0
F001E0
F001E0
F803E0
F803E0
7C07C0
7F1FC0
3FFF80
1FFF00
0FFE00
03F800
ENDCHAR

STARTCHAR ocircumflex
ENCODING 244
SWIDTH 640 0
DWIDTH 21 0
BBX 19 25 1 0
BITMAP
01F000
03F800
07FC00
0FBE00
0F1E00
000000
03F800
0FFE00
1FFF00
3FFF80
7F1FC0
7C07C0
F803E0
F803E0
F001E0
F001E0
F001E0
F803E0
F803E0
7C07C0
7F1FC0
3FFF80
1FFF00
0FFE00
03F800
ENDCHAR

STARTCHAR otilde
ENCODING 245
SWIDTH 640 0
DWIDTH 21 0
BBX 19 25 1 0
BITMAP
03CC00
07FC00
07FC00
067800
000000
000000
03F800
0FFE00
1FFF00
3FFF80
7F1FC0
7C07C0
F803E0
F803E0
F001E0
F001E0
F001E0
F803E0
F803E0
7C07C0
7F1FC0
3FFF80
1FFF00
0FFE00
03F800
ENDCHAR

STARTCHAR odieresis
ENCODING 246
SWIDTH 640 0
DWIDTH 21 0
BBX 19 25 1 0
BITMAP
0F1E00
0F1E00
0F1E00
0F1E00
000000
000000
03F800
0FFE00
1FFF00
3FFF80
7F1FC0
7C07C0
F803E0
F803E0
F001E0
F001E0
F001E0
F803E0
F803E0
7C07C0
7F1FC0
3FFF80
1FFF00
0FFE00
03F800
ENDCHAR

STARTCHAR divide
ENCODING 247
SWIDTH 600 0
DWIDTH 19 0
BBX 16 17 2 2
BITMAP
03C0
03C0
03C0
03C0
0000
0000
FFFF
FFFF
FFFF
FFFF
0000
0000
0000
03C0
03C0
03C0
03C0
ENDCHAR

STARTCHAR oslash
ENCODING 248
SWIDTH 660 0
DWIDTH 22 0
BBX 19 21 1 -1
BITMAP
000300
03FF80
0FFFC0
1FFF80
3FFF80
7F1FC0
7C3FC0
F87FE0
F87FE0
F0F9E0
F1F1E0
F3E1E0
FBE3E0
FFC3E0
7F87C0
7F8FC0
3FFF80
3FFF00
3FFE00
3FF800
080000
ENDCHAR

STARTCHAR ugrave
ENCODING 249
SWIDTH 600 0
DWIDTH 19 0
BBX 15 27 2 0
BITMAP
0400
0E00
1F80
1FC0
0FF0
03F0
01E0
0040
F01E
F01E
F01E
F01E
F01E
F01E
F01E
F01E
F01E
F01E
F01E
F01E
F03E
F83E
FC7E
7FFE
7FFE
3FFE
0F9E
ENDCHAR

STARTCHAR uacute
ENCODING 250
SWIDTH 600 0
DWIDTH 19 0
BBX 15 27 2 0
BITMAP
0040
00E0
03F0
07F0
1FE0
1F80
0F00
0400
F01E
F01E
F01E
F01E
F01E
F01E
F01E
F01E
F01E
F01E
F01E
F01E
F03E
F83E
FC7E
7FFE
7FFE
3FFE
0F9E
ENDCHAR

STARTCHAR ucircumflex
ENCODING 251
SWIDTH 600 0
DWIDTH 19 0
BBX 15 25 2 0
BITMAP
07C0
0FE0
1FF0
3EF8
3C78
0000
F01E
F01E
F01E
F01E
F01E
F01E
F01E
F01E
F01E
F01E
F01E
F01E
F03E
F83E
FC7E
7FFE
7FFE
3FFE
0F9E
ENDCHAR

STARTCHAR udieresis
ENCODING 252
SWIDTH 600 0
DWIDTH 19 0
BBX 15 25 2 0
BITMAP
3C78
3C78
3C78
3C78
0000
0000
F01E
F01E
F01E
F01E
F01E
F01E
F01E
F01E
F01E
F01E
F01E
F01E
F03E
F83E
FC7E
7FFE
7FFE
3FFE
0F9E
ENDCHAR

STARTCHAR yacute
ENCODING 253
SWIDTH 580 0
DWIDTH 19 0
BBX 18 32 0 -6
BITMAP
001800
007800
00FC00
03FC00
07F000
03C000
030000
F807C0
7C0F80
7C0F80
7C0F80
3E1F00
3E1F00
3E1E00
1F3E00
1F3E00
0F3C00
0FFC00
0FF800
07F800
07F800
07F000
03F000
03E000
03E000
03E000
07C000
07C000
078000
0F8000
0F8000
0F0000
ENDCHAR

STARTCHAR thorn
ENCODING 254
SWIDTH 660 0
DWIDTH 21 0
BBX 18 31 2 -6
BITMAP
F00000
F00000
F00000
F00000
F00000
F00000
F1F000
F7FC00
FFFE00
FFFF00
FF3F80
FC0F80
F807C0
F007C0
F003C0
F003C0
F003C0
F007C0
F807C0
FC0F80
FE3F80
FFFF00
FFFE00
F7FC00
F1F000
F00000
F00000
F00000
F00000
F00000
F00000
ENDCHAR

STARTCHAR ydieresis
ENCODING 255
SWIDTH 580 0
DWIDTH 19 0
BBX 18 31 0 -6
BITMAP
1E3C00
1E3C00
1E3C00
1E3C00
000000
000000
F807C0
7C0F80
7C0F80
7C0F80
3E1F00
3E1F00
3E1E00
1F3E00
1F3E00
0F3C00
0FFC00
0FF800
07F800
07F800
07F000
03F000
03E000
03E000
03E000
07C000
07C000
078000
0F8000
0F8000
0F0000
ENDCHAR
ENDFONT
